<svg width="42" height="40" viewBox="0 0 42 40" fill="none" xmlns="http://www.w3.org/2000/svg">
<path d="M28.8161 27.2243L29.7982 26.2487L27.5175 23.9572L26.5397 24.9328L28.8161 27.2243ZM33.0911 25.8395L37.2067 28.0772L38.7466 25.2387L34.6331 23.0032L33.0911 25.8395ZM37.9971 32.5223L34.9389 35.5654L37.2153 37.8547L40.2735 34.8138L37.9971 32.5223ZM33.0739 36.5431C29.9511 36.836 21.8749 36.5754 13.1268 27.879L10.8483 30.1684C20.3932 39.6595 29.4794 40.1247 33.3754 39.7607L33.0739 36.5431ZM13.1268 27.879C4.79006 19.5875 3.40742 12.6162 3.23513 9.59029L0.00897065 9.77335C0.224335 13.581 1.93648 21.3083 10.8483 30.1684L13.1268 27.879ZM16.0881 14.5695L16.7062 13.9536L14.4319 11.6642L13.8138 12.278L16.0881 14.5695ZM17.1972 6.12508L14.4836 2.49834L11.8971 4.43662L14.6107 8.0612L17.1972 6.12508ZM5.35001 1.70795L1.96879 5.06764L4.24734 7.35911L7.62641 3.99943L5.35001 1.70795ZM14.951 13.4238C13.8095 12.278 13.8095 12.278 13.8095 12.2823H13.8052L13.7988 12.291C13.6964 12.3941 13.6048 12.5074 13.5252 12.6291C13.4089 12.8014 13.2819 13.0275 13.1742 13.3139C12.912 14.0533 12.8467 14.8482 12.9847 15.6205C13.2733 17.4834 14.5568 19.945 17.8433 23.2142L20.1219 20.9228C17.0443 17.8646 16.3121 16.0038 16.1764 15.1252C16.1118 14.7073 16.1785 14.5006 16.1979 14.4532C16.2108 14.4245 16.2108 14.4202 16.1979 14.4403C16.1787 14.47 16.1571 14.4981 16.1333 14.5243L16.1118 14.5458L16.0902 14.5652L14.951 13.4238ZM17.8433 23.2142C21.1319 26.4835 23.6064 27.7584 25.4715 28.0427C26.4256 28.1892 27.1944 28.0729 27.7781 27.8553C28.105 27.7358 28.4104 27.5641 28.6826 27.3471L28.7903 27.2502L28.8053 27.2372L28.8118 27.2308L28.814 27.2265C28.814 27.2265 28.8161 27.2243 27.6768 26.0786C26.5354 24.9328 26.5419 24.9307 26.5419 24.9307L26.5462 24.9264L26.5505 24.9221L26.5634 24.9113L26.5849 24.8898L26.6668 24.8252C26.6869 24.8122 26.6818 24.8137 26.6517 24.8295C26.5979 24.8489 26.3868 24.9156 25.9625 24.851C25.0709 24.7132 23.1973 23.9809 20.1219 20.9228L17.8433 23.2142ZM14.4836 2.49619C12.2869 -0.432769 7.97099 -0.897956 5.35001 1.70795L7.62641 3.99943C8.77215 2.86015 10.8052 2.9786 11.8971 4.43662L14.4836 2.49619ZM3.23728 9.59244C3.19421 8.84728 3.53664 8.06766 4.24734 7.36127L1.96663 5.06979C0.810126 6.21984 -0.100865 7.84799 0.00897065 9.77335L3.23728 9.59244ZM34.9389 35.5654C34.3488 36.1555 33.7113 36.4871 33.076 36.5453L33.3754 39.7607C34.9583 39.6121 36.2526 38.8152 37.2175 37.8569L34.9389 35.5654ZM16.7062 13.9536C18.8275 11.8452 18.9847 8.51347 17.1994 6.12723L14.6128 8.06336C15.4807 9.22417 15.3515 10.7468 14.4298 11.6664L16.7062 13.9536ZM37.2089 28.0793C38.9684 29.0355 39.2419 31.2882 37.9992 32.5244L40.2778 34.8138C43.1637 31.943 42.2742 27.1554 38.7487 25.2408L37.2089 28.0793ZM29.7982 26.2509C30.6252 25.4282 31.9561 25.2257 33.0932 25.8417L34.6353 23.0053C32.3007 21.7347 29.4062 22.0857 27.5196 23.9594L29.7982 26.2509Z" fill="white"/>
</svg>
