<svg width="15" height="15" viewBox="0 0 15 15" fill="none" xmlns="http://www.w3.org/2000/svg">
<path d="M3.74529 0.486889C3.74529 0.486889 3.93463 0.405741 4.31332 0.243445C4.69201 0.0811501 5.2975 1.90735e-06 6.12978 1.90735e-06C6.96207 1.90735e-06 7.7569 0.162297 8.51428 0.486889C9.27166 0.811481 9.92292 1.24635 10.4681 1.7915C11.0132 2.33664 11.4481 2.98791 11.7727 3.74529C12.0973 4.50267 12.2596 5.2975 12.2596 6.12979L12.2471 6.15475L12.2596 6.21718C12.2596 7.3907 11.935 8.48099 11.2858 9.48806L14.719 12.9088C14.9104 13.1251 15.004 13.3103 14.9999 13.4643C14.9957 13.6183 14.9021 13.7951 14.719 13.9949L13.9824 14.719C13.766 14.8854 13.5725 14.9687 13.4019 14.9687C13.2313 14.9687 13.0669 14.8854 12.9087 14.719L9.47557 11.2983C8.48515 11.9391 7.39902 12.2596 6.21717 12.2596L6.15475 12.2471L6.12978 12.2596C5.2975 12.2596 4.50267 12.0973 3.74529 11.7727C2.98791 11.4481 2.33664 11.0132 1.79149 10.4681C1.24635 9.92293 0.811478 9.27166 0.486887 8.51428C0.162296 7.7569 0 6.96207 0 6.12979C0 5.2975 0.162296 4.50267 0.486887 3.74529C0.811478 2.98791 1.24635 2.33664 1.79149 1.7915C2.33664 1.24635 2.98791 0.811481 3.74529 0.486889ZM8.15224 2.64667C8.15224 2.64667 7.99826 2.5572 7.69032 2.37826C7.38237 2.19932 6.8622 2.10985 6.12978 2.10985C5.39737 2.10985 4.72322 2.28879 4.10733 2.64667C3.49144 3.00455 3.00455 3.49144 2.64667 4.10733C2.28879 4.72322 2.10984 5.39737 2.10984 6.12979C2.10984 6.8622 2.28879 7.53635 2.64667 8.15224C3.00455 8.76813 3.49144 9.25502 4.10733 9.6129C4.72322 9.97078 5.39737 10.1497 6.12978 10.1497C6.8622 10.1497 7.53635 9.97078 8.15224 9.6129C8.76813 9.25502 9.25502 8.76813 9.6129 8.15224C9.97078 7.53635 10.1497 6.8622 10.1497 6.12979C10.1497 5.39737 9.97078 4.72322 9.6129 4.10733C9.25502 3.49144 8.76813 3.00455 8.15224 2.64667Z" fill="#272727"/>
</svg>
